<svg xmlns="http://www.w3.org/2000/svg" viewBox="0 0 1200 1200" width="1200" height="1200">
  <rect width="1200" height="1200" fill="#E0E0E0"/>

  <defs>
    <linearGradient id="wgrad" x1="0%" y1="0%" x2="0%" y2="100%">
      <stop offset="0%" style="stop-color:#FFB200"/>
      <stop offset="100%" style="stop-color:#E04800"/>
    </linearGradient>
    <linearGradient id="sl" x1="0%" y1="0%" x2="100%" y2="0%">
      <stop offset="0%"   style="stop-color:#E05800;stop-opacity:0"/>
      <stop offset="35%"  style="stop-color:#E05800;stop-opacity:1"/>
      <stop offset="70%"  style="stop-color:#E05800;stop-opacity:0.35"/>
      <stop offset="100%" style="stop-color:#E05800;stop-opacity:0"/>
    </linearGradient>
  </defs>

  <rect x="100" y="100" width="1000" height="1000" rx="200" fill="#FFFFFF"/>

  <!-- Three lines centered at y=600, spaced 22px apart -->
  <rect x="140" y="567" width="920" height="5"  rx="2.5" fill="url(#sl)" opacity="0.3"/>
  <rect x="140" y="589" width="920" height="9"  rx="4.5" fill="url(#sl)" opacity="0.55"/>
  <rect x="140" y="611" width="920" height="9"  rx="4.5" fill="url(#sl)" opacity="0.55"/>
  <rect x="140" y="633" width="920" height="5"  rx="2.5" fill="url(#sl)" opacity="0.3"/>

  <!-- W on top -->
  <path d="M 96,175 L 146,175 Q 154,175 156.7,182.5 L 311.5,613.4 Q 325,651 341.5,614.5 L 495.5,273.5 Q 512,237 528.5,273.5 L 682.5,614.5 Q 699,651 712.5,613.4 L 867.3,182.5 Q 870,175 878,175 L 928,175 Q 944,175 938.7,190.1 L 720.3,811.3 Q 707,849 690.5,812.5 L 528.5,453.5 Q 512,417 495.5,453.5 L 333.5,812.5 Q 317,849 303.7,811.3 L 85.3,190.1 Q 80,175 96,175 Z"
    fill="url(#wgrad)" transform="translate(600,600) scale(0.78) translate(-512,-512)"/>

</svg>
